{"title":"Riddick 2013 WEBRiP HC XviD AC3 BHRG","uid":9113433,"size":1489016564,"categoryP":"video","categoryS":"movies","magnet":"?xt=urn:btih:ad92fe7e268b482a54ea4affc9340bdbf4677147&amp;dn=Riddick+2013+WEBRiP+HC+XviD+AC3+BHRG&amp;tr=udp%3A%2F%2Ftracker.openbittorrent.com%3A80&amp;tr=udp%3A%2F%2Fopen.demonii.com%3A1337&amp;tr=udp%3A%2F%2Ftracker.coppersurfer.tk%3A6969&amp;tr=udp%3A%2F%2Fexodus.desync.com%3A6969","seeders":10,"leechers":2,"uploader":"xxxlavalxxx","files":-1,"time":1382990896,"description":" &lt;a href=&quot;\nhttp://www.imdb.com/title/tt1411250/&quot; rel=&quot;nofollow&quot; target=&quot;_NEW&quot;&gt;\nhttp://www.imdb.com/title/tt1411250/&lt;/a&gt;\n\n\n\nLeft for dead on a sun-scorched planet, Riddick finds himself up against an alien race of predators. Activating an emergency beacon alerts two ships: one carrying a new breed of mercenary, the other captained by a man from Riddick's past. \n\n\n\nDirector:\n David Twohy \n\nWriters:\n David Twohy, Jim Wheat (based on characters created by)\n\nStars:\n Vin Diesel, Karl Urban, Katee Sackhoff \n\nGenres:\n  Action |  Sci-Fi |  Thriller \n\nCountry:\n USA | UK \n\nLanguage:\n English \n\n\n\nFormat                                   : AVI\nFormat/Info                              : Audio Video Interleave\nFile size                                : 1.37 GiB\nDuration                                 : 1h 53mn\nOverall bit rate                         : 1 725 Kbps\nWriting application                      : VirtualDubMod 1.5.10.2 (build 2540/release)\nWriting library                          : VirtualDubMod build 2540/release\n\nVideo\nID                                       : 0\nFormat                                   : MPEG-4 Visual\nFormat profile                           : Advanced Simple@L5\nFormat settings, BVOP                    : 2\nFormat settings, QPel                    : No\nFormat settings, GMC                     : No warppoints\nFormat settings, Matrix                  : Default (H.263)\nMuxing mode                              : Packed bitstream\nCodec ID                                 : XVID\nCodec ID/Hint                            : XviD\nDuration                                 : 1h 53mn\nBit rate                                 : 1 523 Kbps\nWidth                                    : 720 pixels\nHeight                                   : 352 pixels\nDisplay aspect ratio                     : 2.045\nFrame rate                               : 23.976 fps\nColor space                              : YUV\nChroma subsampling                       : 4:2:0\nBit depth                                : 8 bits\nScan type                                : Progressive\nCompression mode                         : Lossy\nBits/(Pixel*Frame)                       : 0.251\nStream size                              : 1.21 GiB (88%)\nWriting library                          : XviD 1.2.1 (UTC 2008-12-04)\n\nAudio\nID                                       : 1\nFormat                                   : AC-3\nFormat/Info                              : Audio Coding 3\nMode extension                           : CM (complete main)\nFormat settings, Endianness              : Big\nCodec ID                                 : 2000\nDuration                                 : 1h 53mn\nBit rate mode                            : Constant\nBit rate                                 : 192 Kbps\nChannel count                            : 2 channels\nChannel positions                        : Front: L R\nSampling rate                            : 44.1 KHz\nBit depth                                : 16 bits\nCompression mode                         : Lossy\nStream size                              : 156 MiB (11%)\n\nSource-- KingStoner thx\n\n\n &lt;a href=&quot;\nhttp://i.imgur.com/oNw79QU.png&quot; rel=&quot;nofollow&quot; target=&quot;_NEW&quot;&gt;\nhttp://i.imgur.com/oNw79QU.png&lt;/a&gt; &lt;a href=&quot;\nhttp://i.imgur.com/YXiEWQb.png&quot; rel=&quot;nofollow&quot; target=&quot;_NEW&quot;&gt;\nhttp://i.imgur.com/YXiEWQb.png&lt;/a&gt; &lt;a href=&quot;\nhttp://i.imgur.com/FVKUi6e.png&quot; rel=&quot;nofollow&quot; target=&quot;_NEW&quot;&gt;\nhttp://i.imgur.com/FVKUi6e.png&lt;/a&gt;","torrent":{"xt":"urn:btih:ad92fe7e268b482a54ea4affc9340bdbf4677147","amp;dn":"Riddick+2013+WEBRiP+HC+XviD+AC3+BHRG","amp;tr":["udp%3A%2F%2Ftracker.openbittorrent.com%3A80","udp%3A%2F%2Fopen.demonii.com%3A1337","udp%3A%2F%2Ftracker.coppersurfer.tk%3A6969","udp%3A%2F%2Fexodus.desync.com%3A6969"],"infoHash":"ad92fe7e268b482a54ea4affc9340bdbf4677147","infoHashBuffer":{"type":"Buffer","data":[173,146,254,126,38,139,72,42,84,234,74,255,201,52,11,219,244,103,113,71]},"announce":[],"urlList":[]}}